<svg xmlns="http://www.w3.org/2000/svg" width="78" height="78" viewBox="0 0 78 78">
<g>
	<linearGradient id="SVGID_1_" gradientUnits="userSpaceOnUse" x1="42.5264" y1="42.5264" x2="10.3824" y2="10.3824">
		<stop offset="0" style="stop-color:#662D91"/>
		<stop offset="1" style="stop-color:#1C75BC"/>
	</linearGradient>
	<circle fill="url(#SVGID_1_)" cx="38.303" cy="38.303" r="37.303"/>
	<linearGradient id="SVGID_2_" gradientUnits="userSpaceOnUse" x1="70.5771" y1="70.5771" x2="34.4882" y2="34.4882">
		<stop offset="0" style="stop-color:#FFF200"/>
		<stop offset="1" style="stop-color:#ED1C29"/>
	</linearGradient>
	<path fill="url(#SVGID_2_)" d="M65.77,13.065L13.065,65.77c6.642,6.107,15.504,9.837,25.238,9.837   c20.602,0,37.303-16.701,37.303-37.304C75.606,28.569,71.876,19.707,65.77,13.065z"/>
	<g>
		<path fill="#FFFFFF" d="M40.156,20.792c-3.237,0-6.249,0.957-8.775,2.598c1.585,2.053,1.54,4.618,1.54,4.618v3.904h0.001    c1.548-2.351,4.209-3.904,7.235-3.904c4.782,0,8.658,3.876,8.658,8.658c0,4.781-3.876,8.658-8.658,8.658    c-4.694,0-8.512-3.736-8.651-8.396l-0.007,0.006c0,0,0-4.97,0-8.925c0-1.969-0.648-3.116-1.3-3.772    c-3.762,2.955-6.182,7.542-6.182,12.697c0,8.914,7.226,16.14,16.14,16.14c8.914,0,16.14-7.226,16.14-16.14    S49.07,20.792,40.156,20.792z"/>
		<path fill="#FFFFFF" d="M24.016,43.504c0,0,1.871,5.506,7.375,8.231v3.955c0,0-0.41,6.163-7.375,6.787V43.504z"/>
		<circle fill="#FFFFFF" cx="27.704" cy="14.967" r="3.688"/>
	</g>
</g>
</svg>